<svg width="38" height="38" viewBox="0 0 38 38" fill="none" xmlns="http://www.w3.org/2000/svg">
<path d="M18.5832 27.1392C18.3297 27.1392 18.0803 27.242 17.9014 27.4207C17.7215 27.6007 17.6187 27.8489 17.6187 28.1023C17.6187 28.3569 17.7215 28.6051 17.9014 28.7853C18.0815 28.964 18.3297 29.0668 18.5832 29.0668C18.8378 29.0668 19.086 28.9639 19.2648 28.7853C19.4447 28.6052 19.5477 28.357 19.5477 28.1023C19.5477 27.8489 19.4447 27.6008 19.2648 27.4207C19.086 27.242 18.8377 27.1392 18.5832 27.1392Z" fill="white"/>
<path d="M34.1451 2.74381H21.7104C20.4771 1.15571 19.3197 0.270545 19.2164 0.193127C18.8735 -0.0644614 18.4013 -0.0643328 18.0582 0.193256C17.9549 0.270802 16.798 1.15584 15.5654 2.74381H3.02213C1.35572 2.74381 0 4.09952 0 5.76594V29.0716C0 30.738 1.35572 32.0937 3.02213 32.0937H13.3402L12.0154 36.0707H10.7533C10.2205 36.0707 9.78875 36.5024 9.78875 37.0352C9.78875 37.568 10.2205 37.9997 10.7533 37.9997H12.7076C12.7086 37.9997 12.7098 38 12.7107 38C12.7117 38 12.7129 37.9997 12.7139 37.9997H24.453C24.4541 37.9997 24.4551 38 24.4561 38C24.4572 38 24.4583 37.9997 24.4592 37.9997H26.4138C26.9466 37.9997 27.3783 37.568 27.3783 37.0352C27.3783 36.5024 26.9466 36.0707 26.4138 36.0707H25.1515L23.8267 32.0937H34.1448C35.8112 32.0937 37.167 30.738 37.167 29.0716V5.76594C37.1672 4.09952 35.8115 2.74381 34.1451 2.74381ZM34.1451 4.67283C34.7477 4.67283 35.2382 5.16318 35.2382 5.76594V23.8735H27.3786V17.8309C27.3786 16.2028 26.2805 14.8276 24.7869 14.4056V11.3434C24.7869 8.67966 23.988 6.43479 22.9951 4.67283H34.1451ZM14.2573 20.9597C14.3627 20.8014 14.419 20.6153 14.419 20.4251V20.1131H16.3785V21.5253C16.3785 22.1827 16.815 23.1186 17.2388 23.8735H12.3169L14.2573 20.9597ZM11.827 21.1289V17.8309C11.827 17.2933 12.088 16.8155 12.4899 16.5184V20.1333L11.827 21.1289ZM25.4496 21.1287L24.7869 20.1334V16.5187C25.1886 16.8159 25.4496 17.2935 25.4496 17.8311V21.1287ZM22.8579 15.236V18.1841H20.899V16.7296C20.899 15.3741 19.8845 14.2715 18.6376 14.2715C17.392 14.2715 16.3787 15.3741 16.3787 16.7296V18.1841H14.419V15.236V11.7917H22.8579V15.236ZM18.3076 21.5254V16.7297C18.3076 16.4067 18.503 16.2007 18.6374 16.2007C18.773 16.2007 18.9699 16.4068 18.9699 16.7297L18.97 21.5196C18.9612 21.6672 18.8326 21.9913 18.6378 22.3851C18.4441 21.9927 18.3162 21.6708 18.3076 21.5254ZM20.8989 21.5254V20.1132H22.8577V20.4252C22.8577 20.6155 22.9141 20.8015 23.0194 20.9597L24.9597 23.8737H20.0373C20.4619 23.1186 20.8989 22.1828 20.8989 21.5254ZM18.6374 2.23943C19.7611 3.29178 22.1713 5.94058 22.7366 9.7239H14.5402C15.1054 5.93981 17.5151 3.29101 18.6374 2.23943ZM3.02213 4.67283H14.2812C13.2886 6.43479 12.49 8.67966 12.49 11.3434V14.4058C10.9963 14.8277 9.89806 16.203 9.89806 17.8311V23.8737H1.92902V5.76594C1.92902 5.16318 2.41938 4.67283 3.02213 4.67283ZM23.1185 36.0707H14.0485L15.3734 32.0937H21.7939L23.1185 36.0707ZM34.1451 30.1647H3.02213C2.41938 30.1647 1.92902 29.6742 1.92902 29.0716V25.8025H35.2383V29.0716C35.2382 29.6743 34.7478 30.1647 34.1451 30.1647Z" fill="white"/>
</svg>
